<svg width="73" height="72" viewBox="0 0 73 72" fill="none" xmlns="http://www.w3.org/2000/svg">
<path d="M60.5 21H12.5C9.18629 21 6.5 23.6863 6.5 27V57C6.5 60.3137 9.18629 63 12.5 63H60.5C63.8137 63 66.5 60.3137 66.5 57V27C66.5 23.6863 63.8137 21 60.5 21Z" stroke="#F4B100" stroke-width="6" stroke-linecap="round" stroke-linejoin="round"/>
<path d="M48.5 63V15C48.5 13.4087 47.8679 11.8826 46.7426 10.7574C45.6174 9.63214 44.0913 9 42.5 9H30.5C28.9087 9 27.3826 9.63214 26.2574 10.7574C25.1321 11.8826 24.5 13.4087 24.5 15V63" stroke="#F4B100" stroke-width="6" stroke-linecap="round" stroke-linejoin="round"/>
</svg>
